<svg width="1080" height="1080" viewBox="0 0 1080 1080" fill="none" xmlns="http://www.w3.org/2000/svg">
<rect width="1080" height="1080" rx="149" fill="#FFDBDB"/>
<path d="M895 539.5C895 597.798 880.622 655.196 853.141 706.61C825.66 758.024 785.923 801.867 737.45 834.256C688.977 866.645 633.264 886.579 575.247 892.293C517.23 898.007 458.699 889.325 404.839 867.015C350.979 844.706 303.452 809.457 266.468 764.392C229.484 719.328 204.185 665.837 192.812 608.66C181.438 551.482 184.342 492.382 201.265 436.594C218.188 380.807 248.608 330.053 289.831 288.831L397.688 396.688C374.202 420.173 356.871 449.089 347.23 480.872C337.588 512.656 335.934 546.326 342.414 578.902C348.894 611.477 363.307 641.952 384.378 667.626C405.448 693.301 432.525 713.383 463.211 726.093C493.896 738.803 527.242 743.75 560.296 740.494C593.35 737.239 625.091 725.882 652.707 707.429C680.323 688.977 702.962 663.998 718.619 634.706C734.276 605.415 742.467 572.714 742.467 539.5H895Z" fill="white"/>
</svg>
